<?xml version="1.0" encoding="utf-8"?>
<!-- Generator: Adobe Illustrator 25.4.1, SVG Export Plug-In . SVG Version: 6.00 Build 0)  -->
<svg version="1.1" id="Layer_1" xmlns="http://www.w3.org/2000/svg" xmlns:xlink="http://www.w3.org/1999/xlink" x="0px" y="0px"
	 viewBox="0 0 133.43 7.86" style="enable-background:new 0 0 133.43 7.86;" xml:space="preserve">
<style type="text/css">
	.st0{fill:#FDFEFE;}
</style>
<g>
	<path class="st0" d="M3.66,7.86C1.49,7.86,0,6.43,0,3.96C0,1.5,1.43,0,3.66,0C4.53,0,5.3,0.23,5.9,0.65L5.41,2.23
		C4.86,1.82,4.26,1.62,3.68,1.62c-1.08,0-1.79,0.9-1.79,2.29c0,1.51,0.6,2.4,1.76,2.4c0.23,0,0.46-0.05,0.66-0.11V4.93H3.07v-1.5
		h2.94v3.72C5.38,7.6,4.58,7.86,3.66,7.86z"/>
	<path class="st0" d="M10.64,7.68L9.47,5.19L8.97,5.25v2.42H7.15v-7.5h2.24c1.96,0,3,1.01,3,2.51c0,0.91-0.41,1.62-1.24,2.05
		l1.52,2.94H10.64z M9.27,1.7H8.94v2.13L9.3,3.83c0.79,0,1.2-0.37,1.2-1.07C10.5,2.07,10.08,1.7,9.27,1.7z"/>
	<path class="st0" d="M13.49,7.68v-7.5h4.69V1.7H15.3v1.46h2.31v1.51H15.3v1.48h2.88v1.52H13.49z"/>
	<path class="st0" d="M19.31,7.68v-7.5H24V1.7h-2.88v1.46h2.31v1.51h-2.31v1.48H24v1.52H19.31z"/>
	<path class="st0" d="M29.17,7.74L26.89,3.2v4.47h-1.76v-7.5h1.98l2.27,4.49V0.18h1.76v7.56H29.17z"/>
	<path class="st0" d="M36.99,5.53h-0.4v2.15h-1.82v-7.5h2.23c1.95,0,3.01,1.08,3.01,2.67C40.02,4.46,38.96,5.53,36.99,5.53z
		 M36.9,1.7h-0.34v2.34h0.34c0.8,0,1.22-0.41,1.22-1.18C38.12,2.11,37.7,1.7,36.9,1.7z"/>
	<path class="st0" d="M44.49,7.68L44.09,6.1h-2.14l-0.41,1.57h-1.93l2.21-7.5h2.4l2.21,7.5H44.49z M43.03,1.92l-0.74,2.72h1.46
		L43.03,1.92z"/>
	<path class="st0" d="M49.88,1.79v5.89h-1.82V1.79h-1.85V0.18h5.54v1.61H49.88z"/>
	<path class="st0" d="M52.69,7.68v-7.5h1.82v7.5H52.69z"/>
	<path class="st0" d="M58.92,7.86c-1.9,0-3.33-1.37-3.33-3.91c0-2.39,1.45-3.95,3.36-3.95c1.91,0,3.35,1.36,3.35,3.9
		C62.29,6.28,60.82,7.86,58.92,7.86z M58.92,1.55c-0.92,0-1.44,0.97-1.44,2.35c0,1.42,0.54,2.41,1.46,2.41
		c0.92,0,1.45-0.98,1.45-2.36C60.39,2.53,59.85,1.55,58.92,1.55z"/>
	<path class="st0" d="M65.69,7.68v-7.5h1.82v5.96h2.39v1.54H65.69z"/>
	<path class="st0" d="M75.2,7.68L74.79,6.1h-2.13l-0.41,1.57h-1.93l2.21-7.5h2.4l2.21,7.5H75.2z M73.74,1.92l-0.74,2.72h1.46
		L73.74,1.92z"/>
	<path class="st0" d="M81.85,7.74L79.57,3.2v4.47h-1.76v-7.5h1.98l2.27,4.49V0.18h1.76v7.56H81.85z"/>
	<path class="st0" d="M87.26,7.68h-2.35v-7.5h2.46c2.24,0,3.51,1.46,3.51,3.69C90.88,6.18,89.59,7.68,87.26,7.68z M87.14,1.69h-0.41
		v4.49h0.48c1.09,0,1.78-0.74,1.78-2.23C88.99,2.42,88.38,1.69,87.14,1.69z"/>
	<path class="st0" d="M94.09,7.86c-0.97,0-1.9-0.28-2.51-0.65l0.31-1.68c0.61,0.4,1.37,0.71,2.13,0.71c0.54,0,0.91-0.22,0.91-0.66
		c0-0.44-0.44-0.66-1.28-0.94c-0.94-0.3-2.08-0.85-2.08-2.35c0-1.39,0.9-2.28,2.55-2.28c1.03,0,1.85,0.25,2.47,0.64l-0.32,1.64
		c-0.62-0.38-1.45-0.66-2.06-0.66c-0.48,0-0.77,0.17-0.77,0.58c0,0.48,0.59,0.71,1.33,0.95c1.4,0.46,2.03,1.24,2.03,2.34
		C96.81,6.93,95.84,7.86,94.09,7.86z"/>
	<path class="st0" d="M101.2,7.86c-2.22,0-3.65-1.45-3.65-3.92c0-2.46,1.43-3.93,3.65-3.93c0.79,0,1.51,0.2,2.05,0.59l-0.49,1.62
		c-0.43-0.36-1.03-0.59-1.55-0.59c-1.07,0-1.76,0.92-1.76,2.31c0,1.38,0.68,2.3,1.76,2.3c0.58,0,1.08-0.18,1.57-0.61l0.47,1.62
		C102.68,7.66,102.02,7.86,101.2,7.86z"/>
	<path class="st0" d="M108.39,7.68l-0.41-1.57h-2.13l-0.41,1.57h-1.93l2.21-7.5h2.4l2.21,7.5H108.39z M106.93,1.92l-0.74,2.72h1.46
		L106.93,1.92z"/>
	<path class="st0" d="M113.18,5.53h-0.4v2.15h-1.82v-7.5h2.23c1.96,0,3.01,1.08,3.01,2.67C116.2,4.46,115.15,5.53,113.18,5.53z
		 M113.08,1.7h-0.33v2.34h0.33c0.8,0,1.22-0.41,1.22-1.18C114.31,2.11,113.89,1.7,113.08,1.7z"/>
	<path class="st0" d="M117.19,7.68v-7.5h1.82v7.5H117.19z"/>
	<path class="st0" d="M124.4,7.74l-2.28-4.53v4.47h-1.76v-7.5h1.98l2.27,4.49V0.18h1.76v7.56H124.4z"/>
	<path class="st0" d="M131.08,7.86c-2.17,0-3.66-1.43-3.66-3.9c0-2.46,1.43-3.96,3.66-3.96c0.88,0,1.64,0.23,2.24,0.65l-0.49,1.58
		c-0.55-0.41-1.15-0.61-1.73-0.61c-1.08,0-1.79,0.9-1.79,2.29c0,1.51,0.6,2.4,1.76,2.4c0.23,0,0.46-0.05,0.66-0.11V4.93h-1.25v-1.5
		h2.94v3.72C132.81,7.6,132.01,7.86,131.08,7.86z"/>
</g>
</svg>
